<?xml version="1.0" standalone="no"?>
<!DOCTYPE svg PUBLIC "-//W3C//DTD SVG 20010904//EN"
 "http://www.w3.org/TR/2001/REC-SVG-20010904/DTD/svg10.dtd">
<svg version="1.0" xmlns="http://www.w3.org/2000/svg"
 width="1024.000000pt" height="1024.000000pt" viewBox="0 0 1024.000000 1024.000000"
 preserveAspectRatio="xMidYMid meet">

<g transform="translate(0.000000,1024.000000) scale(0.100000,-0.100000)"
fill="#000000" stroke="none">
<path d="M5070 9030 c-6 -12 -9 -29 -5 -39 3 -11 -3 -25 -15 -36 -19 -17 -20
-30 -20 -251 0 -216 1 -234 18 -243 18 -10 19 0 20 222 l2 232 40 35 c40 36
50 66 28 88 -19 19 -56 14 -68 -8z"/>
<path d="M4672 8978 c-7 -7 -12 -25 -12 -40 0 -23 7 -32 30 -42 27 -11 179
-168 218 -225 12 -17 17 -56 20 -161 3 -76 2 -153 -2 -172 -4 -21 -28 -55 -66
-96 l-60 -62 0 -139 c0 -76 -2 -165 -6 -197 -3 -34 -1 -65 5 -74 19 -27 31 9
30 85 0 39 3 125 7 192 l7 122 63 62 c56 55 64 68 64 101 0 43 10 53 36 33 17
-12 19 -27 19 -127 0 -179 8 -396 13 -363 4 26 5 28 12 10 5 -12 9 40 10 125
0 80 2 188 5 241 l3 96 -49 49 -49 48 0 109 0 109 -89 101 c-49 56 -98 111
-110 121 -11 11 -21 31 -21 46 0 45 -50 76 -78 48z"/>
<path d="M5251 8744 c0 -11 3 -14 6 -6 3 7 2 16 -1 19 -3 4 -6 -2 -5 -13z"/>
<path d="M5135 8640 c3 -5 8 -10 11 -10 2 0 4 5 4 10 0 6 -5 10 -11 10 -5 0
-7 -4 -4 -10z"/>
<path d="M5360 8544 c0 -94 2 -104 15 -90 17 16 21 101 5 91 -6 -4 -10 11 -10
39 0 25 5 46 12 48 7 3 6 7 -5 11 -15 6 -17 -4 -17 -99z"/>
<path d="M4680 8625 c-10 -12 -12 -58 -6 -204 6 -181 6 -189 -15 -214 -33 -43
-43 -34 -36 32 6 52 4 60 -16 80 -13 11 -28 21 -33 21 -6 0 -16 -34 -22 -75
-44 -281 -216 -499 -692 -876 -52 -42 -102 -84 -110 -95 -14 -19 -14 -19 8 0
22 19 23 19 37 0 19 -25 19 -26 -5 -52 -42 -45 -7 -19 99 72 60 52 140 118
178 148 154 124 341 321 397 419 l19 34 -25 -25 c-14 -14 -24 -29 -24 -34 1
-5 -4 -10 -9 -12 -6 -2 -11 4 -11 15 0 11 5 19 11 18 5 -1 10 9 11 23 2 51 3
51 28 34 24 -15 25 -15 46 26 26 50 37 46 20 -7 -21 -63 -66 -147 -133 -246
-35 -51 -61 -99 -59 -106 3 -8 0 -11 -5 -8 -6 4 -46 -33 -89 -81 -66 -74 -66
-84 0 -19 10 10 21 15 25 11 3 -4 0 -9 -6 -11 -7 -3 -13 -11 -13 -18 0 -7 6
-16 13 -18 9 -4 8 -8 -3 -16 -8 -6 -19 -11 -25 -11 -5 0 -3 4 5 10 8 5 11 12
8 15 -13 14 -28 -7 -22 -31 4 -14 2 -24 -5 -24 -5 0 -15 -10 -22 -22 -16 -31
103 85 155 150 125 161 180 253 182 307 0 17 4 44 8 60 5 21 -2 14 -24 -25
-16 -30 -32 -63 -36 -72 -3 -10 -10 -18 -15 -18 -12 0 -11 13 0 25 5 6 26 44
48 85 l38 75 5 -50 6 -50 17 55 c9 31 23 89 31 129 13 69 37 113 52 98 10 -10
-13 -182 -37 -285 -22 -97 -23 -102 -8 -102 5 0 7 5 3 12 -4 7 -3 8 5 4 8 -5
7 -13 -4 -29 -17 -25 -19 -37 -6 -37 5 0 13 10 17 23 l8 22 6 -25 c6 -21 10
-14 28 45 32 105 49 197 63 332 l12 122 49 47 49 46 -3 136 c-3 129 -4 137
-23 137 -19 0 -20 -7 -20 -127 0 -126 0 -128 -27 -155 l-28 -28 0 143 c0 102
-4 153 -14 177 -16 38 -36 44 -56 20z m-340 -845 c0 -5 -5 -10 -11 -10 -5 0
-7 5 -4 10 3 6 8 10 11 10 2 0 4 -4 4 -10z m326 -17 c-10 -10 -19 5 -10 18 6
11 8 11 12 0 2 -7 1 -15 -2 -18z m-366 -23 c0 -5 -7 -10 -16 -10 -8 0 -12 5
-9 10 3 6 10 10 16 10 5 0 9 -4 9 -10z m-61 -66 c-12 -13 -29 -24 -38 -24 -10
0 -3 12 19 35 19 20 36 31 38 25 2 -6 -6 -22 -19 -36z m31 -8 c0 -3 -4 -8 -10
-11 -5 -3 -10 -1 -10 4 0 6 5 11 10 11 6 0 10 -2 10 -4z m-80 -35 c0 -5 -7
-11 -15 -15 -15 -5 -20 5 -8 17 9 10 23 9 23 -2z m-42 -77 c-15 -15 -17 -15
-28 6 -15 29 7 47 30 25 12 -13 12 -17 -2 -31z m-57 -8 c-17 -7 -21 -15 -17
-32 7 -25 -10 -42 -26 -26 -6 6 -18 8 -27 5 -9 -4 4 12 28 35 25 22 49 38 55
35 5 -4 0 -11 -13 -17z m224 -34 c-3 -3 -5 0 -5 7 0 8 -7 11 -15 7 -18 -7 -20
5 -3 22 10 10 14 8 20 -9 5 -12 6 -24 3 -27z m-285 -56 c0 -3 -4 -8 -10 -11
-5 -3 -10 -1 -10 4 0 6 5 11 10 11 6 0 10 -2 10 -4z"/>
<path d="M5480 8506 c0 -2 11 -6 25 -8 13 -3 22 -1 19 3 -5 9 -44 13 -44 5z"/>
<path d="M5132 8301 c-2 -121 7 -130 24 -23 3 19 1 32 -5 32 -5 0 -12 21 -14
48 -2 26 -4 0 -5 -57z"/>
<path d="M5135 8121 c-4 -12 -3 -26 2 -30 118 -99 137 -107 59 -23 -23 24 -44
51 -47 60 -5 14 -7 13 -14 -7z"/>
<path d="M4917 8124 c-4 -4 -7 -37 -7 -73 0 -49 5 -74 20 -96 l20 -30 -2 99
c-3 92 -11 119 -31 100z"/>
<path d="M4445 7920 c-3 -5 -1 -10 4 -10 6 0 11 5 11 10 0 6 -2 10 -4 10 -3 0
-8 -4 -11 -10z"/>
<path d="M4595 7740 c-3 -5 -1 -10 4 -10 6 0 11 5 11 10 0 6 -2 10 -4 10 -3 0
-8 -4 -11 -10z"/>
<path d="M4540 7631 c-17 -34 -26 -63 -20 -66 11 -7 -8 -55 -22 -55 -4 0 -8
-7 -8 -16 0 -10 6 -14 14 -11 7 3 18 1 23 -4 5 -5 14 0 21 12 12 19 11 20 -7
14 -15 -4 -21 -2 -21 9 0 10 6 13 17 9 12 -5 14 -3 8 8 -7 11 -6 12 6 2 13
-11 19 -6 37 26 15 27 18 41 11 48 -14 14 -2 36 13 27 7 -4 8 -2 4 4 -4 7 -16
12 -27 12 -17 0 -18 3 -9 20 7 13 7 20 0 20 -5 0 -23 -27 -40 -59z"/>
<path d="M4600 7675 c-7 -9 -8 -15 -2 -15 5 0 12 7 16 15 3 8 4 15 2 15 -2 0
-9 -7 -16 -15z"/>
<path d="M4485 7534 c-9 -14 -15 -27 -13 -30 2 -2 12 10 22 26 21 37 15 40 -9
4z"/>
<path d="M4080 7336 c-72 -68 -209 -215 -161 -171 75 68 219 215 210 215 -2 0
-24 -20 -49 -44z"/>
<path d="M3770 7270 c0 -5 5 -10 11 -10 5 0 7 5 4 10 -3 6 -8 10 -11 10 -2 0
-4 -4 -4 -10z"/>
<path d="M3608 7177 c-109 -98 -202 -197 -302 -322 -236 -295 -390 -638 -463
-1035 -13 -72 -17 -148 -17 -320 0 -206 2 -236 27 -351 72 -342 220 -618 461
-868 206 -212 482 -381 801 -491 192 -66 633 -166 680 -154 14 3 24 0 28 -9
11 -30 134 -52 297 -52 167 0 260 15 296 47 14 12 30 17 50 13 52 -10 439 80
644 150 669 226 1106 697 1250 1345 31 140 41 306 30 497 -10 164 -50 394 -70
401 -6 2 -8 7 -6 11 3 4 -1 30 -8 57 -16 57 -48 139 -42 107 4 -24 -9 -32 -17
-10 -3 6 -6 -1 -7 -18 -2 -18 -4 -23 -7 -12 -2 9 -9 15 -14 12 -5 -4 -9 2 -9
12 0 10 -9 24 -20 31 -25 15 -25 15 0 -49 30 -75 77 -268 96 -394 19 -131 22
-393 5 -515 -34 -239 -121 -473 -248 -669 -235 -361 -559 -602 -1038 -770
-133 -47 -170 -51 -68 -7 589 251 1019 683 1158 1161 46 160 57 254 53 435 -4
128 -11 197 -33 307 -15 78 -31 141 -34 139 -3 -2 -7 10 -8 28 -1 17 -11 58
-22 91 -12 33 -19 50 -17 38 4 -22 -8 -37 -29 -38 -5 0 -9 -8 -9 -18 3 -30
-13 -18 -20 15 -3 17 -9 29 -12 26 -3 -4 4 -37 15 -75 51 -173 72 -312 78
-518 5 -199 5 -200 -25 -323 -97 -381 -304 -675 -672 -951 -103 -78 -303 -201
-325 -201 -5 0 41 34 101 75 320 221 543 471 700 787 25 49 50 101 55 116 l10
27 -30 -29 c-28 -26 -59 -29 -45 -3 4 7 -16 -10 -43 -36 -34 -33 -49 -55 -46
-67 8 -30 -123 -259 -215 -375 -189 -239 -429 -431 -732 -588 -91 -46 -176
-88 -190 -92 -14 -4 38 26 115 65 182 94 307 168 377 222 197 152 339 295 451
453 77 110 156 255 154 284 -2 26 -5 26 -37 0 -24 -20 -24 -20 -2 -9 41 20 36
3 -8 -26 -40 -27 -206 -104 -223 -104 -4 0 -6 4 -3 9 4 5 -16 2 -43 -7 -28 -8
-48 -19 -46 -23 3 -4 -9 -12 -25 -18 -17 -5 -30 -16 -30 -24 0 -21 -86 -149
-169 -252 -53 -65 -71 -94 -67 -110 3 -11 6 -37 6 -57 0 -26 5 -38 14 -38 8 0
59 47 114 105 115 120 237 291 226 318 -14 37 57 98 77 66 14 -22 11 -27 -30
-72 -21 -23 -51 -62 -66 -87 -46 -75 -173 -226 -233 -278 -93 -81 -228 -186
-264 -205 -32 -17 -32 -17 -8 0 110 81 155 121 158 142 2 13 -4 44 -14 69
l-17 45 -18 -35 c-22 -42 -84 -100 -139 -128 -51 -26 -52 -18 -1 11 22 12 75
64 118 117 43 52 97 118 121 146 59 70 152 211 152 232 0 13 -6 15 -27 10 -21
-5 -24 -4 -13 4 13 9 13 10 0 10 -31 -1 -244 -58 -220 -60 21 -1 19 -3 -13
-13 -38 -12 -39 -14 -92 -150 -30 -77 -59 -145 -65 -152 -6 -7 -60 -40 -119
-74 -60 -33 -123 -72 -140 -87 -30 -25 -41 -54 -21 -54 6 0 10 9 10 20 0 11 7
20 15 20 25 0 17 -30 -11 -42 -14 -7 -32 -25 -40 -40 -8 -15 -19 -28 -25 -28
-6 0 -8 -4 -5 -8 6 -11 -50 -79 -58 -71 -3 3 8 20 24 37 16 18 27 32 24 32 -3
0 4 13 15 28 10 15 21 43 23 62 4 40 33 64 188 154 113 65 105 54 165 226 36
106 35 132 -4 129 -11 -1 -10 -3 4 -7 14 -4 3 -9 -35 -16 l-54 -11 -27 -110
c-16 -61 -28 -114 -28 -118 -1 -4 -20 -17 -43 -27 -77 -35 -91 -19 -17 18 32
16 36 24 56 107 34 137 36 126 -28 129 l-56 3 -22 -127 c-11 -70 -23 -135 -27
-143 -3 -10 1 -17 13 -19 12 -2 -9 -21 -70 -62 -49 -33 -92 -68 -97 -80 -4
-12 -20 -54 -36 -94 -15 -39 -29 -70 -31 -68 -2 2 8 43 22 92 27 95 36 107
119 156 26 15 48 33 50 40 4 14 34 197 43 261 l6 37 -39 0 c-66 0 -84 -9 -84
-40 0 -18 -9 -35 -24 -47 -21 -17 -25 -32 -36 -134 -9 -95 -15 -117 -31 -129
-70 -51 -82 -67 -83 -103 -1 -32 -4 -37 -24 -37 l-23 0 23 -40 c19 -32 21 -41
10 -52 -11 -11 -12 -10 -7 4 5 12 1 20 -8 24 -9 3 -13 12 -10 20 3 8 -5 18
-21 26 -30 13 -18 28 22 28 19 0 22 5 22 43 0 40 4 46 45 76 50 36 51 40 60
160 5 69 3 87 -10 102 -23 25 -16 63 13 67 12 2 22 -1 22 -7 0 -6 -7 -11 -15
-11 -8 0 -15 -4 -15 -9 0 -13 27 -21 45 -15 14 6 16 11 19 47 1 8 -14 12 -43
12 l-45 0 -15 53 c-9 29 -23 57 -31 63 -11 8 -12 12 -2 16 8 3 12 28 12 75 l0
70 70 72 70 73 0 131 0 132 -39 0 c-22 0 -42 -4 -46 -9 -3 -6 -7 -72 -10 -148
-4 -112 -7 -139 -19 -141 -13 -3 -16 19 -18 140 l-3 143 -25 4 c-14 1 -85 0
-157 -4 l-133 -7 0 -43 c0 -41 4 -47 63 -99 l62 -55 -3 -165 -3 -165 -35 -7
c-19 -3 -38 -12 -42 -19 -4 -7 -18 -15 -32 -18 -14 -2 32 -5 103 -6 l127 -1 0
25 c0 33 35 35 47 3 9 -26 5 -266 -5 -344 -6 -46 -12 -55 -52 -86 -43 -33 -45
-36 -48 -93 -5 -90 -22 -93 -22 -4 l0 75 43 31 c51 35 57 59 57 220 l0 93 -37
-1 c-50 -3 -395 11 -410 16 -14 5 -17 -115 -5 -193 7 -41 11 -45 87 -91 l80
-48 12 -99 c6 -54 12 -115 12 -134 0 -55 -16 -7 -29 92 -7 45 -14 93 -16 105
-3 19 -33 41 -158 118 -12 8 -18 36 -24 127 -5 65 -11 120 -13 122 -7 8 -119
10 -120 3 -2 -14 34 -242 42 -263 4 -12 38 -38 76 -59 96 -52 103 -60 102
-114 l-1 -46 -16 49 c-16 46 -22 52 -102 98 l-84 48 -23 123 c-12 67 -24 139
-25 160 -3 37 -4 38 -35 35 -17 -2 -29 0 -27 4 10 15 -34 8 -46 -8 -11 -12 -8
-38 20 -147 18 -73 37 -142 41 -154 4 -12 37 -38 74 -59 76 -42 101 -65 108
-100 6 -36 -11 -29 -27 10 -12 28 -28 41 -91 71 -88 43 -81 30 -134 235 -20
80 -40 151 -44 157 -4 7 0 13 10 15 10 2 -8 8 -39 12 -32 4 -62 5 -68 1 -17
-11 -11 -46 30 -167 60 -180 83 -222 137 -255 61 -37 97 -74 160 -164 29 -41
63 -87 75 -104 44 -61 -75 76 -150 172 -18 23 -57 56 -86 72 -29 17 -59 38
-68 48 -20 23 -105 239 -126 322 -12 44 -23 66 -37 72 -11 4 -92 28 -180 52
-187 53 -277 85 -270 97 3 5 -7 16 -22 23 -31 16 -73 7 -73 -15 0 -14 80 -156
145 -258 44 -69 194 -247 266 -317 29 -27 77 -57 139 -84 60 -26 112 -58 142
-85 25 -24 88 -71 140 -105 110 -72 122 -82 51 -44 -29 15 -92 59 -140 97 -51
39 -134 91 -198 122 -93 46 -121 65 -181 128 -99 102 -193 213 -240 283 -54
79 -142 237 -149 267 -4 15 -20 29 -49 41 -24 10 -52 24 -62 32 -18 14 -18 15
4 21 39 11 25 27 -19 21 -22 -3 -43 -8 -46 -11 -10 -10 106 -236 166 -324 135
-197 351 -406 539 -521 52 -33 72 -52 30 -30 -102 54 -302 213 -409 325 -171
180 -316 409 -352 556 -6 22 -4 27 15 30 22 3 21 5 -14 36 -37 33 -37 33 -32
8 l4 -25 -36 22 c-46 29 -104 77 -104 87 0 4 6 8 13 7 47 -1 47 0 20 59 -46
101 -26 217 54 323 15 19 22 32 17 28 -12 -7 -11 40 2 50 5 5 6 4 3 0 -4 -5 4
-19 17 -32 13 -13 24 -31 24 -39 0 -43 324 -211 475 -246 45 -10 57 -19 114
-87 35 -41 86 -91 112 -110 39 -27 50 -42 54 -71 4 -20 17 -63 30 -96 14 -32
22 -63 18 -68 -3 -6 -25 -8 -51 -4 -64 9 -50 1 43 -23 67 -17 82 -18 93 -7 12
11 10 20 -11 52 -31 50 -38 71 -52 169 l-11 80 -37 6 c-21 3 -42 10 -46 15 -4
5 -42 51 -85 101 -65 79 -83 94 -119 103 -169 43 -404 152 -507 237 l-55 45
-73 -76 c-59 -62 -72 -81 -67 -99 4 -15 3 -18 -3 -9 -17 25 -37 -48 -36 -133
2 -88 11 -120 93 -303 101 -228 221 -401 402 -579 129 -127 192 -178 320 -259
49 -32 88 -59 85 -61 -8 -8 -162 75 -267 144 -329 218 -602 551 -703 858 -54
165 -57 186 -63 373 -6 214 4 317 52 505 64 249 144 449 273 677 61 109 68
126 54 134 -9 5 -24 19 -33 29 -15 19 -18 17 -68 -67 -163 -269 -289 -603
-352 -931 -19 -96 -19 -456 0 -550 32 -163 131 -395 229 -535 154 -221 375
-431 595 -564 111 -67 248 -138 349 -182 49 -20 87 -39 85 -41 -6 -5 -261 83
-354 123 -336 143 -609 367 -812 667 -42 62 -132 242 -166 332 -42 111 -84
303 -96 437 -43 484 138 1041 479 1473 69 88 153 175 168 175 6 0 23 -10 38
-21 19 -15 31 -18 38 -11 7 7 0 16 -21 28 -17 10 -31 23 -31 29 0 6 16 27 35
48 30 31 33 40 25 62 -5 14 -12 25 -16 25 -3 0 -4 -7 -1 -14 4 -10 1 -13 -9
-9 -25 9 -15 31 38 77 29 25 50 46 46 46 -3 0 -48 -37 -100 -83z m-236 -279
c-7 -7 -12 -8 -12 -2 0 14 12 26 19 19 2 -3 -1 -11 -7 -17z m158 -285 c0 -6
-24 2 -36 12 -6 5 -9 16 -7 23 4 9 11 6 24 -9 11 -12 19 -24 19 -26z m3800
-628 c0 -8 -4 -15 -8 -15 -5 0 -9 7 -9 15 0 8 4 15 9 15 4 0 8 -7 8 -15z
m-2060 -915 c25 -25 25 -45 2 -68 -16 -16 -20 -43 -25 -212 -4 -106 -9 -195
-12 -198 -15 -15 -19 26 -19 201 -1 171 -3 193 -18 205 -25 18 -22 58 4 76 30
21 44 20 68 -4z m887 -516 c-3 -3 -12 -4 -19 -1 -8 3 -5 6 6 6 11 1 17 -2 13
-5z m-40 -10 c-3 -3 -12 -4 -19 -1 -8 3 -5 6 6 6 11 1 17 -2 13 -5z m-62 -14
c-11 -5 -27 -9 -35 -9 -9 0 -8 4 5 9 11 5 27 9 35 9 9 0 8 -4 -5 -9z m-1824
-40 c5 0 16 -11 25 -25 13 -19 14 -28 5 -39 -10 -11 -2 -35 38 -113 27 -55 63
-122 79 -150 17 -28 28 -54 25 -56 -8 -9 -33 4 -33 17 0 7 -16 39 -36 72 -20
32 -52 96 -71 140 -24 57 -43 85 -60 93 -13 6 -26 18 -29 26 -8 20 15 47 33
40 8 -3 19 -5 24 -5z m1857 -33 c4 -20 -24 -57 -42 -57 -6 0 -33 -39 -61 -87
-81 -140 -102 -162 -208 -221 -53 -29 -105 -64 -116 -78 -24 -31 -36 -31 -16
0 9 13 62 51 118 85 112 69 114 71 187 197 41 72 49 93 44 119 -5 27 -1 36 18
49 29 21 72 17 76 -7z m-2029 -33 c17 -13 22 -23 18 -43 -5 -22 8 -45 64 -121
74 -102 74 -102 245 -181 79 -36 115 -58 123 -75 7 -17 19 -24 38 -24 39 0 56
-14 49 -37 -5 -16 8 -32 64 -78 38 -31 70 -60 70 -63 0 -5 -2 -4 -97 77 -35
29 -75 56 -90 60 -19 5 -29 16 -35 38 -4 17 -14 35 -20 40 -13 9 -152 73 -235
108 -53 22 -63 33 -143 143 -36 49 -77 96 -92 105 -26 15 -37 45 -21 60 11 12
38 8 62 -9z m909 -6 c16 -16 15 -43 -3 -58 -8 -7 -15 -27 -15 -46 0 -30 7 -38
71 -81 l71 -48 5 -142 c3 -88 1 -143 -4 -143 -10 0 -23 135 -23 226 0 41 -3
45 -57 83 -31 23 -62 41 -70 41 -9 0 -13 14 -13 45 0 33 -5 50 -20 62 -34 30
-19 73 25 73 12 0 26 -5 33 -12z m-157 -427 c20 -16 21 -21 10 -34 -9 -12 -10
-21 -2 -36 19 -34 12 -37 -9 -3 -14 22 -27 32 -45 32 -33 0 -45 28 -20 46 25
19 38 18 66 -5z m984 -93 c-28 -24 -226 -129 -236 -126 -10 4 130 87 189 113
23 10 42 21 42 24 0 3 -14 20 -31 37 l-32 33 -24 -30 c-16 -18 -23 -37 -20
-49 6 -25 -8 -26 -22 -3 -7 14 -1 26 31 59 l41 42 41 -41 c41 -42 41 -42 21
-59z m-175 68 c0 -2 -8 -10 -17 -17 -16 -13 -17 -12 -4 4 13 16 21 21 21 13z
m-1260 -72 c0 -2 -9 0 -20 6 -11 6 -20 13 -20 16 0 2 9 0 20 -6 11 -6 20 -13
20 -16z m874 12 c-3 -8 2 -16 13 -19 14 -4 14 -5 -4 -6 -14 -1 -23 5 -23 13 0
8 -10 17 -22 19 -17 3 -14 5 9 6 24 1 31 -3 27 -13z m-51 -48 c-12 -63 -20
-71 -19 -19 1 33 5 51 13 51 9 0 11 -10 6 -32z m-703 -23 c47 -24 82 -45 77
-45 -11 0 -167 79 -167 85 0 8 0 8 90 -40z m1070 42 c0 -2 -15 -16 -32 -33
l-33 -29 29 33 c28 30 36 37 36 29z m-645 -97 l20 -25 -22 19 c-13 11 -23 24
-23 29 0 6 1 8 3 6 1 -2 11 -15 22 -29z m565 26 c0 -2 -8 -10 -17 -17 -16 -13
-17 -12 -4 4 13 16 21 21 21 13z m-709 -23 c13 -16 12 -17 -3 -4 -17 13 -22
21 -14 21 2 0 10 -8 17 -17z m-151 -8 c14 -8 21 -14 15 -14 -5 0 -21 6 -35 14
-14 8 -20 14 -15 14 6 0 21 -6 35 -14z m261 -22 c13 -16 12 -17 -3 -4 -10 7
-18 15 -18 17 0 8 8 3 21 -13z m-201 -3 c8 -5 11 -10 5 -10 -5 0 -17 5 -25 10
-8 5 -10 10 -5 10 6 0 17 -5 25 -10z m654 -11 c-10 -12 -32 -30 -49 -41 -18
-12 -12 -4 15 21 49 44 64 53 34 20z m176 5 c0 -10 -151 -75 -168 -72 -10 2 4
11 33 21 28 10 66 26 85 37 37 20 50 24 50 14z m-600 -50 c0 -2 -13 2 -30 11
-16 9 -30 18 -30 21 0 2 14 -2 30 -11 17 -9 30 -18 30 -21z m121 9 c13 -16 12
-17 -3 -4 -10 7 -18 15 -18 17 0 8 8 3 21 -13z m-70 -10 c13 -16 12 -17 -3 -4
-17 13 -22 21 -14 21 2 0 10 -8 17 -17z m40 0 c13 -16 12 -17 -3 -4 -10 7 -18
15 -18 17 0 8 8 3 21 -13z m79 -18 c0 -5 -5 -3 -10 5 -5 8 -10 20 -10 25 0 6
5 3 10 -5 5 -8 10 -19 10 -25z m260 30 c0 -2 -13 -11 -30 -20 -38 -19 -40 -11
-2 9 31 17 32 18 32 11z m-100 -40 c-7 -8 -18 -15 -24 -15 -6 0 -2 7 8 15 25
19 32 19 16 0z m95 -13 c-3 -3 -11 0 -18 7 -9 10 -8 11 6 5 10 -3 15 -9 12
-12z"/>
<path d="M5215 5040 c-11 -17 5 -32 21 -19 7 6 11 15 8 20 -7 12 -21 11 -29
-1z"/>
<path d="M4213 4453 c9 -9 19 -14 23 -11 10 10 -6 28 -24 28 -15 0 -15 -1 1
-17z"/>
<path d="M6023 4445 c-3 -9 -3 -18 -1 -21 9 -9 38 8 38 22 0 19 -29 18 -37 -1z"/>
<path d="M4020 4406 c0 -16 27 -29 35 -16 3 5 -4 14 -15 20 -16 8 -20 8 -20
-4z"/>
<path d="M4530 3961 c0 -9 41 -23 48 -16 2 2 1 8 -3 14 -8 13 -45 15 -45 2z"/>
<path d="M4920 4395 c0 -10 7 -15 18 -13 21 4 19 22 -2 26 -10 2 -16 -3 -16
-13z"/>
<path d="M4751 3991 c-21 -13 -4 -30 30 -29 37 1 46 14 20 27 -24 13 -32 13
-50 2z"/>
<path d="M3670 7135 c-7 -8 -8 -15 -2 -15 5 0 15 7 22 15 7 8 8 15 2 15 -5 0
-15 -7 -22 -15z"/>
<path d="M3684 6909 l-58 -72 38 -33 c21 -19 35 -38 31 -44 -9 -14 23 -50 45
-50 23 0 40 20 40 46 0 27 -17 39 -48 35 -27 -3 -62 24 -62 48 0 8 12 27 26
43 22 22 30 25 47 17 15 -8 23 -7 35 5 15 14 15 18 1 31 -15 16 -49 11 -49 -6
0 -5 -5 -9 -11 -9 -6 0 -1 14 11 30 38 54 14 32 -46 -41z"/>
<path d="M4780 6844 c-36 -19 -83 -51 -105 -70 -39 -35 -34 -36 15 -4 14 9 54
34 90 55 76 45 75 44 69 49 -2 3 -33 -11 -69 -30z"/>
<path d="M5450 6827 c0 -7 27 -35 60 -63 33 -27 60 -54 60 -60 0 -7 7 -15 16
-18 21 -8 24 -8 24 5 0 5 -4 7 -10 4 -5 -3 -10 1 -10 9 0 9 -4 16 -9 16 -5 0
-11 12 -13 28 -2 15 -8 26 -15 25 -7 -2 -13 1 -13 7 0 10 -69 60 -82 60 -5 0
-8 -6 -8 -13z"/>
<path d="M5740 6534 c0 -6 7 -19 16 -30 14 -18 14 -18 3 6 -14 31 -19 36 -19
24z"/>
<path d="M5771 6475 c1 -19 18 -51 18 -35 0 8 -4 22 -9 30 -5 8 -9 11 -9 5z"/>
<path d="M4412 6310 c0 -19 2 -27 5 -17 2 9 2 25 0 35 -3 9 -5 1 -5 -18z"/>
<path d="M4400 6198 c0 -23 17 -31 24 -12 4 9 4 19 1 22 -3 3 -5 -1 -5 -9 0
-11 -2 -11 -10 1 -8 13 -10 13 -10 -2z"/>
<path d="M3600 6079 c0 -5 -4 -8 -9 -5 -9 6 -26 -43 -17 -51 3 -3 19 5 35 17
27 18 29 23 17 36 -17 17 -26 18 -26 3z"/>
<path d="M3980 6044 c-63 -29 -82 -43 -75 -54 4 -7 121 56 144 76 13 11 -21 1
-69 -22z"/>
<path d="M4004 5999 c-58 -37 -92 -66 -106 -94 -11 -19 -10 -19 13 -3 13 9 23
21 22 27 -2 6 9 12 25 12 15 1 34 2 42 3 8 1 35 16 59 34 43 32 48 42 10 22
-21 -12 -26 -1 -7 18 22 22 -8 12 -58 -19z"/>
<path d="M7006 6007 c3 -10 9 -15 12 -12 3 3 0 11 -7 18 -10 9 -11 8 -5 -6z"/>
<path d="M3841 5946 c-36 -39 -64 -93 -55 -108 4 -6 3 -8 -3 -5 -13 8 -31 -31
-39 -83 -12 -76 54 -175 166 -245 87 -55 271 -125 399 -153 l25 -5 -26 33
c-20 26 -44 38 -124 64 -54 18 -135 50 -179 71 -44 21 -87 39 -95 39 -26 1
-40 16 -40 41 0 36 16 39 38 7 11 -15 53 -44 94 -64 78 -38 245 -98 275 -98
11 0 30 -19 47 -46 35 -56 66 -71 81 -40 15 30 38 26 55 -10 14 -29 21 -33 82
-43 99 -16 118 -15 118 9 0 31 -60 80 -90 73 -17 -3 -34 2 -50 15 -23 18 -24
23 -13 51 l11 31 -46 0 c-63 0 -217 40 -200 52 8 6 2 7 -17 3 -16 -4 -27 -3
-23 1 10 10 -100 46 -114 38 -7 -5 -8 -2 -3 6 6 10 3 12 -13 8 -12 -4 -20 -3
-17 2 3 4 -2 11 -11 14 -8 3 -12 2 -9 -4 8 -14 1 -13 -43 5 -56 24 -133 76
-130 89 2 6 -11 29 -27 50 -27 35 -30 47 -30 110 0 56 3 71 15 71 9 0 14 8 12
19 -2 10 1 15 6 12 5 -3 15 0 21 7 23 29 -19 13 -48 -17z"/>
<path d="M6399 5913 c6 -13 7 -23 2 -23 -5 0 -5 -14 2 -36 l11 -35 13 25 c15
28 8 51 -23 77 -16 13 -16 12 -5 -8z"/>
<path d="M4027 5898 c-20 -31 -20 -100 -1 -124 14 -18 15 -18 4 3 -9 19 -6 30
16 63 27 41 27 63 -1 40 -12 -10 -15 -10 -15 3 0 8 6 17 13 20 6 2 9 8 5 11
-3 4 -13 -3 -21 -16z"/>
<path d="M4472 5870 c-13 -35 -4 -56 38 -90 36 -29 89 -54 96 -47 2 2 -18 27
-46 56 -27 29 -56 64 -64 79 l-15 27 -9 -25z"/>
<path d="M5735 5869 c-4 -11 -34 -49 -67 -85 -33 -35 -58 -64 -54 -64 3 0 30
11 59 24 74 32 109 83 91 130 -8 22 -21 20 -29 -5z"/>
<path d="M3876 5849 c-14 -73 55 -149 120 -133 25 6 25 7 6 28 -26 28 -42 60
-42 84 0 11 -8 22 -17 26 -10 3 -28 10 -39 15 -19 8 -23 6 -28 -20z"/>
<path d="M6437 5809 c-5 -39 -15 -53 -62 -89 -17 -13 -18 -13 -10 0 7 13 -16
-5 -70 -54 -6 -5 -4 -6 5 -1 13 8 13 7 0 -10 -16 -19 -114 -66 -133 -64 -24 3
-38 -1 -33 -10 8 -12 -50 -35 -69 -27 -9 3 -13 2 -10 -4 7 -12 -68 -32 -89
-24 -9 3 -16 1 -16 -6 0 -7 -8 -9 -21 -5 -14 5 -19 3 -15 -3 8 -13 -57 -27
-75 -16 -8 5 -10 3 -4 -6 6 -10 -1 -12 -34 -6 -24 3 -61 1 -84 -5 -37 -10 -39
-12 -20 -20 28 -10 40 -47 20 -66 -8 -8 -29 -16 -46 -18 -36 -2 -97 -49 -106
-81 -5 -21 -5 -21 77 -8 46 8 91 14 101 14 10 0 17 8 17 19 0 23 25 51 46 51
7 0 16 -11 20 -25 5 -21 11 -24 28 -19 11 4 21 7 21 8 1 0 13 18 28 38 15 20
27 41 27 46 0 6 33 18 73 27 75 18 230 80 291 116 21 12 36 29 36 39 0 23 15
34 34 23 12 -7 11 -15 -3 -52 -14 -34 -19 -40 -25 -26 -6 17 -8 17 -25 1 -25
-23 -160 -79 -269 -112 -78 -23 -95 -32 -121 -65 l-31 -38 113 30 c209 55 437
190 482 285 13 27 16 51 12 90 -5 49 -32 114 -48 114 -3 0 -9 -18 -12 -41z"/>
<path d="M6300 5785 c0 -26 -15 -34 -23 -12 -2 6 -3 4 -2 -5 2 -10 -1 -21 -6
-24 -11 -7 -2 -24 13 -24 5 0 8 6 5 14 -4 9 6 20 24 29 24 11 27 16 14 21 -9
3 -13 10 -10 16 3 5 1 10 -4 10 -6 0 -11 -11 -11 -25z"/>
<path d="M4053 5775 c0 -11 4 -12 14 -4 7 6 13 13 13 15 0 2 -6 4 -13 4 -8 0
-14 -7 -14 -15z"/>
<path d="M3426 5584 c27 -82 138 -181 222 -199 17 -4 32 -12 32 -20 0 -19 238
-123 338 -146 96 -22 83 -11 197 -166 39 -53 52 -63 77 -63 56 0 65 -12 72
-102 8 -87 30 -150 72 -205 21 -28 23 -37 13 -49 -11 -13 -6 -15 32 -15 111 0
150 -5 158 -18 11 -17 45 -7 38 12 -2 6 -13 11 -23 10 -10 -1 -14 0 -9 2 6 3
9 21 7 40 -4 29 -12 40 -48 61 -25 15 -50 36 -56 48 -7 11 -15 71 -19 131 -4
81 -11 119 -25 142 -23 39 -11 66 30 71 54 7 91 -64 46 -88 -18 -10 -20 -21
-20 -111 0 -80 3 -101 15 -105 14 -6 14 -8 -1 -19 -15 -11 -13 -14 17 -37 19
-14 43 -28 54 -30 16 -2 21 -13 25 -48 4 -37 9 -46 28 -48 12 -2 22 -7 22 -11
0 -4 12 -7 28 -6 25 0 27 3 30 51 l3 52 -69 62 -70 62 -5 81 c-3 50 -1 86 6
92 7 7 8 6 4 -1 -4 -7 2 -14 13 -17 18 -4 19 -11 13 -69 l-6 -64 68 -61 67
-62 0 -88 c1 -81 2 -86 16 -65 8 12 25 22 38 22 23 0 24 3 24 78 l0 78 -64 49
-65 49 -7 88 c-4 49 -11 91 -15 94 -5 3 -14 15 -21 27 -10 19 -9 20 4 9 13
-11 16 -8 20 17 4 26 1 30 -26 36 -17 4 -58 8 -91 10 -33 1 -70 7 -82 13 -12
7 -57 17 -100 23 -234 33 -508 110 -685 193 -42 20 -81 36 -87 36 -6 0 -11 4
-11 8 0 4 -29 27 -64 50 -36 23 -90 70 -120 104 l-56 61 16 -49z m955 -435
c14 -14 19 -30 17 -52 -2 -26 2 -35 28 -52 l31 -20 7 -123 6 -124 62 -68 c34
-38 71 -71 82 -73 12 -2 4 -5 -16 -6 -31 -1 -37 3 -40 21 -3 19 -48 61 -102
93 -13 8 -18 33 -22 120 -9 158 -12 162 -124 215 -19 9 -25 57 -9 76 17 20 56
17 80 -7z"/>
<path d="M4334 5126 c-4 -10 -2 -22 4 -28 8 -8 13 -7 18 6 4 10 2 22 -4 28 -8
8 -13 7 -18 -6z"/>
<path d="M3880 5598 c0 -9 5 -20 11 -23 17 -11 20 0 4 21 -13 17 -14 17 -15 2z"/>
<path d="M6750 5548 c-86 -100 -279 -205 -507 -276 -154 -48 -514 -120 -645
-129 l-95 -6 -6 -137 -5 -138 -72 -69 -73 -69 1 -58 c0 -32 5 -63 10 -68 5 -5
26 -6 46 -3 l36 7 0 67 0 66 60 48 c33 27 60 54 61 60 1 7 2 34 3 61 1 53 19
75 52 62 18 -7 18 -8 2 -20 -13 -10 -18 -27 -18 -63 0 -49 -1 -51 -61 -99 -72
-58 -79 -69 -79 -127 0 -35 5 -48 23 -60 l22 -16 -22 0 c-45 -2 -34 -21 11
-21 50 0 51 1 36 31 -9 16 -7 19 15 19 24 0 25 2 25 67 0 64 1 68 38 101 61
56 72 79 72 155 0 64 -1 68 -27 78 -15 6 -31 16 -35 22 -25 40 12 94 57 83 32
-8 41 -31 28 -65 -7 -20 -6 -30 5 -40 10 -10 13 -33 10 -93 l-3 -79 -56 -49
c-53 -46 -56 -52 -62 -105 -3 -31 -10 -62 -15 -68 -8 -11 -9 -45 0 -51 2 -2
19 -1 38 1 35 5 35 5 36 54 0 47 4 53 59 109 l58 58 6 117 c6 113 7 118 35
140 21 17 27 28 21 44 -7 24 36 71 65 71 20 0 50 -31 50 -52 0 -20 -32 -48
-56 -48 -10 0 -31 -10 -46 -23 -25 -20 -28 -31 -37 -131 -6 -60 -11 -117 -11
-126 0 -9 -23 -33 -50 -54 -28 -21 -55 -47 -61 -58 -11 -20 -3 -62 10 -53 5 2
17 -2 27 -10 25 -19 70 -19 185 1 101 18 218 51 182 53 -15 1 -21 7 -20 20 1
14 16 24 62 37 33 10 62 21 65 24 3 3 19 12 36 18 25 11 35 10 59 -2 21 -11
33 -12 49 -4 32 16 34 21 6 13 -24 -7 -24 -7 -5 9 22 17 60 22 50 6 -7 -11 15
-13 39 -4 9 3 13 10 10 15 -3 5 1 6 8 4 8 -3 22 1 33 10 11 8 16 15 10 14 -5
-1 -19 1 -30 5 -11 5 -26 10 -34 12 -22 7 83 110 112 110 12 0 25 -4 28 -9 3
-4 15 -10 25 -11 10 -2 18 -10 16 -17 -6 -24 49 34 69 73 10 21 19 40 19 43 0
3 -27 5 -60 5 -33 0 -60 4 -60 10 0 6 6 10 14 10 8 0 12 8 9 23 -2 12 1 29 7
37 9 13 12 13 24 -2 16 -22 101 -26 94 -5 -3 6 -13 36 -22 65 -10 28 -22 52
-27 52 -5 0 -9 11 -9 25 l0 24 -52 -31 c-78 -46 -180 -90 -293 -128 l-100 -33
-112 -115 c-62 -63 -113 -121 -113 -128 0 -26 -70 -153 -90 -164 -16 -9 -14
-2 11 38 16 27 37 74 45 105 13 52 25 67 133 175 115 116 120 120 192 142 166
50 334 135 402 203 l41 41 57 -63 c31 -35 65 -81 75 -102 14 -28 25 -39 42
-39 20 0 22 4 17 23 -14 45 -69 119 -126 169 -32 28 -56 55 -53 60 3 5 -18 -9
-46 -30 -99 -75 -310 -165 -496 -212 -36 -9 -53 -24 -124 -110 -46 -57 -91
-102 -103 -105 -12 -2 -31 -6 -42 -7 -17 -3 -22 -16 -32 -93 -15 -110 -32
-144 -97 -198 -38 -30 -44 -33 -25 -11 65 72 80 107 90 210 10 109 19 124 75
124 27 0 40 9 83 61 28 33 65 81 83 105 19 27 42 47 57 50 94 18 254 74 358
125 168 83 210 112 228 154 8 19 22 51 30 71 9 20 14 38 13 40 -2 2 -23 -20
-48 -48z m-242 -482 c6 -28 -38 -68 -66 -61 -13 3 -61 -6 -110 -21 -126 -39
-164 -55 -158 -70 7 -17 -6 -25 -24 -14 -11 7 -11 14 -3 32 8 19 37 32 144 67
80 27 144 54 159 68 28 27 53 26 58 -1z m-170 -175 c5 -33 -17 -53 -51 -48
-26 3 -168 -41 -185 -58 -4 -4 -14 -25 -22 -48 -9 -23 -23 -43 -32 -45 -16 -3
-15 2 4 48 22 52 58 90 87 90 32 0 105 32 140 60 40 34 54 34 59 1z"/>
<path d="M6455 5051 c-3 -5 -1 -12 5 -16 12 -7 30 2 30 16 0 12 -27 12 -35 0z"/>
<path d="M6295 4880 c-11 -17 5 -32 21 -19 7 6 11 15 8 20 -7 12 -21 11 -29
-1z"/>
<path d="M4613 5468 c-27 -7 -31 -12 -24 -26 5 -9 12 -25 15 -34 3 -9 24 -29
47 -43 36 -23 40 -30 36 -55 -6 -26 -3 -28 29 -35 20 -3 37 -5 38 -3 0 2 0 42
-2 90 l-3 86 -42 7 c-23 4 -46 11 -52 15 -5 4 -25 3 -42 -2z"/>
<path d="M5518 5453 l-38 -4 0 -96 c0 -83 2 -94 16 -89 9 3 24 6 35 6 14 0 19
7 19 30 0 34 28 67 65 76 19 5 24 11 20 25 -4 11 2 26 14 38 l21 21 -57 -2
c-32 -1 -75 -3 -95 -5z"/>
<path d="M4536 5441 c-9 -14 4 -41 19 -41 15 0 24 19 18 38 -5 14 -29 16 -37
3z"/>
<path d="M5423 5442 c-21 -3 -23 -9 -23 -63 0 -56 -2 -60 -35 -81 -52 -34 -46
-48 18 -42 80 9 77 4 77 98 0 47 -3 86 -7 88 -5 2 -18 2 -30 0z"/>
<path d="M4775 5432 c-7 -7 -6 -78 1 -123 6 -36 7 -37 61 -44 30 -4 58 -4 61
0 4 4 -10 21 -30 38 -33 28 -37 38 -39 83 -2 46 -5 52 -25 52 -13 0 -26 -3
-29 -6z"/>
<path d="M4878 5429 c-29 -16 -24 -86 6 -110 14 -11 28 -28 31 -39 4 -14 15
-20 36 -20 42 0 37 27 -13 71 -37 31 -42 41 -40 73 2 20 1 36 0 36 -2 0 -11
-5 -20 -11z"/>
<path d="M4926 5424 c-12 -33 -5 -52 35 -87 22 -21 43 -37 45 -37 9 0 3 67 -6
76 -12 12 -3 44 12 44 5 0 6 5 3 10 -10 17 -82 12 -89 -6z"/>
<path d="M5042 5431 c-11 -7 -11 -9 2 -14 21 -8 21 -43 0 -55 -11 -6 -14 -21
-12 -58 3 -47 4 -49 36 -52 l32 -3 0 89 c0 73 -3 91 -16 96 -20 8 -26 7 -42
-3z"/>
<path d="M5160 5430 c0 -5 -7 -10 -15 -10 -12 0 -15 -16 -15 -80 l0 -80 38 0
37 0 -3 52 c-2 29 -10 60 -18 69 -11 12 -11 18 -2 27 29 29 74 -1 48 -32 -6
-8 -10 -30 -8 -48 l3 -33 43 39 c36 33 43 45 40 70 l-3 31 -72 3 c-46 2 -73
-1 -73 -8z"/>
<path d="M5330 5399 c0 -33 -6 -46 -32 -70 -18 -16 -36 -29 -40 -29 -13 0 -38
-32 -32 -41 10 -17 66 1 106 34 36 29 38 33 38 89 0 51 -2 58 -20 58 -17 0
-20 -7 -20 -41z"/>
<path d="M5667 5423 c-14 -13 -6 -24 15 -21 27 4 36 28 11 28 -11 0 -23 -3
-26 -7z"/>
<path d="M3463 5313 c-44 -65 -53 -94 -53 -163 0 -57 12 -85 24 -55 4 11 21
15 66 15 45 0 60 3 60 14 0 10 10 14 29 12 46 -3 84 -45 44 -47 -13 -1 -11 -3
5 -7 41 -12 29 -27 -25 -32 l-53 -5 34 -42 c40 -51 135 -125 149 -116 6 3 7 1
4 -4 -6 -10 38 -34 72 -40 9 -1 28 -4 43 -7 37 -6 110 -48 98 -56 -11 -7 72
-43 97 -43 7 0 13 -3 13 -7 0 -10 129 -44 137 -36 4 3 -1 6 -11 6 -9 0 -15 4
-12 9 4 5 0 11 -6 14 -7 2 -10 8 -5 12 4 5 13 1 20 -7 6 -9 31 -19 54 -23 l42
-7 -24 61 c-13 33 -26 73 -30 89 -4 18 -24 42 -56 67 -27 21 -75 66 -107 100
-45 50 -68 66 -107 78 -159 47 -369 156 -430 223 l-40 44 -32 -47z m82 -108
c-8 -39 -15 -73 -15 -77 0 -5 -9 -8 -20 -8 -16 0 -20 7 -20 38 0 20 5 55 11
77 5 22 12 47 14 55 2 8 4 17 4 20 1 2 10 -5 21 -16 19 -19 19 -22 5 -89z
m265 -140 c13 -14 42 -30 64 -36 23 -5 55 -16 71 -24 17 -7 48 -17 69 -21 43
-8 86 -46 86 -75 0 -30 -24 -22 -37 11 -6 17 -19 30 -28 30 -10 0 -58 14 -108
31 -58 20 -100 29 -119 25 -35 -7 -68 22 -68 59 0 34 38 34 70 0z m153 -188
c10 -16 38 -29 98 -46 46 -12 90 -25 97 -27 7 -2 11 -8 8 -13 -5 -7 -101 18
-168 44 -13 5 -18 2 -18 -9 0 -20 -13 -20 -50 -1 -29 15 -41 51 -23 68 13 14
41 6 56 -16z"/>
<path d="M3760 5062 c0 -5 7 -15 15 -22 8 -7 15 -8 15 -2 0 5 -7 15 -15 22 -8
7 -15 8 -15 2z"/>
<path d="M3914 4868 c-9 -15 27 -41 40 -28 6 6 5 15 -4 25 -15 18 -26 19 -36
3z"/>
<path d="M4422 5344 c1 -9 9 -19 16 -22 9 -3 13 2 10 14 -1 9 -9 19 -16 22 -9
3 -13 -2 -10 -14z"/>
<path d="M5790 5335 c-18 -21 -3 -32 16 -13 10 9 12 18 6 22 -5 3 -15 -1 -22
-9z"/>
<path d="M6720 5304 c0 -5 12 -26 26 -45 14 -19 30 -44 35 -57 5 -13 14 -20
20 -16 6 3 16 0 21 -7 7 -10 8 -5 3 16 -4 16 -10 32 -13 35 -4 3 -15 19 -24
35 -9 17 -25 30 -35 30 -10 0 -21 5 -25 10 -5 7 -8 6 -8 -1z"/>
<path d="M5000 5264 c0 -8 5 -12 10 -9 6 4 8 11 5 16 -9 14 -15 11 -15 -7z"/>
<path d="M4780 5010 l0 -130 65 -51 65 -51 0 -89 0 -89 45 0 45 0 0 43 c0 24
-3 79 -6 121 l-7 77 -63 50 -64 51 0 96 0 97 -40 3 -40 2 0 -130z"/>
<path d="M4900 5041 c0 -83 2 -91 25 -109 13 -11 41 -34 62 -52 l37 -33 1
-126 0 -126 38 -3 37 -3 0 159 0 160 -65 52 c-64 52 -64 53 -67 109 -3 55 -3
56 -35 59 l-33 3 0 -90z"/>
<path d="M5865 5120 c-9 -15 14 -40 31 -33 22 8 18 43 -5 43 -11 0 -23 -5 -26
-10z"/>
<path d="M6784 5106 c-9 -10 -25 -59 -28 -86 -2 -13 -67 -91 -123 -147 l-62
-61 29 -12 c21 -9 33 -9 50 0 20 11 21 13 5 30 -20 22 -4 36 25 20 15 -8 26
-7 44 5 53 35 113 137 123 210 5 38 3 45 -10 40 -8 -4 -18 -2 -22 4 -8 14 -17
13 -31 -3z m46 -47 c0 -10 -4 -19 -10 -19 -5 0 -10 12 -10 26 0 14 4 23 10 19
6 -3 10 -15 10 -26z m-19 -72 c-13 -13 -26 -3 -16 12 3 6 11 8 17 5 6 -4 6
-10 -1 -17z"/>
<path d="M4532 5073 c2 -10 10 -18 18 -18 8 0 16 8 18 18 2 12 -3 17 -18 17
-15 0 -20 -5 -18 -17z"/>
<path d="M5643 5074 c-8 -20 8 -36 26 -25 15 10 8 41 -9 41 -6 0 -13 -7 -17
-16z"/>
<path d="M6890 5061 c0 -4 11 -6 25 -3 14 2 25 6 25 8 0 2 -11 4 -25 4 -14 0
-25 -4 -25 -9z"/>
<path d="M3430 5052 c0 -5 7 -17 15 -28 14 -18 16 -18 26 -1 5 9 14 15 19 12
4 -3 10 2 14 10 4 12 -3 15 -34 15 -22 0 -40 -4 -40 -8z"/>
<path d="M3505 5030 c-4 -6 -12 -8 -18 -4 -7 3 -3 -2 8 -11 11 -9 18 -18 15
-20 -3 -2 -3 -6 0 -8 3 -3 6 8 6 24 2 31 -1 35 -11 19z"/>
<path d="M6877 5020 c-10 -38 -9 -42 16 -38 14 2 23 11 25 27 3 18 0 22 -11
18 -9 -3 -17 -1 -20 6 -2 6 -6 0 -10 -13z"/>
<path d="M3539 4995 c-4 -15 -7 -22 -14 -38 -6 -14 1 -27 25 -52 18 -19 38
-31 43 -28 6 3 7 1 3 -5 -10 -17 9 -23 53 -16 48 8 50 14 14 37 -16 9 -49 37
-75 61 -27 25 -49 43 -49 41z"/>
<path d="M3720 4840 c-8 -5 -10 -10 -5 -10 6 0 17 5 25 10 8 5 11 10 5 10 -5
0 -17 -5 -25 -10z"/>
<path d="M3730 4810 c-17 -10 -16 -12 28 -34 28 -14 39 -15 69 -5 l36 12 -34
18 c-37 20 -76 24 -99 9z"/>
<path d="M6450 4750 c-71 -36 -74 -39 -50 -48 25 -10 39 -6 112 28 28 13 43
46 24 53 -6 3 -45 -12 -86 -33z"/>
<path d="M3860 4760 c-18 -12 -2 -12 25 0 13 6 15 9 5 9 -8 0 -22 -4 -30 -9z"/>
<path d="M3877 4738 c-27 -10 -23 -12 70 -44 54 -19 134 -43 178 -54 44 -11
111 -29 149 -40 38 -10 73 -17 77 -14 26 15 0 32 -83 53 -51 14 -151 44 -223
68 -71 24 -132 43 -135 42 -3 0 -18 -5 -33 -11z m370 -104 c-3 -3 -12 -4 -19
-1 -8 3 -5 6 6 6 11 1 17 -2 13 -5z"/>
<path d="M6217 4714 c-11 -11 3 -24 18 -18 8 4 12 10 9 15 -6 11 -18 12 -27 3z"/>
<path d="M6270 4680 c-12 -8 -12 -10 2 -15 10 -4 21 -4 27 -1 5 3 11 1 13 -5
3 -8 16 -7 47 2 35 10 40 14 25 20 -28 11 -41 10 -24 -2 12 -8 8 -10 -15 -6
-16 3 -37 8 -45 11 -8 3 -22 2 -30 -4z"/>
<path d="M6200 4643 c0 -5 -10 -8 -22 -9 -36 -1 -272 -56 -282 -65 -23 -21 34
-19 146 6 129 28 192 51 182 66 -6 11 -24 12 -24 2z"/>
<path d="M6250 4640 c0 -5 5 -10 10 -10 6 0 10 5 10 10 0 6 -4 10 -10 10 -5 0
-10 -4 -10 -10z"/>
<path d="M4405 4590 c-14 -16 -12 -18 42 -29 48 -9 59 -9 72 4 14 13 13 15 -4
15 -11 1 -37 7 -57 14 -33 12 -39 11 -53 -4z"/>
<path d="M5685 4590 c-3 -5 1 -10 10 -10 9 0 13 5 10 10 -3 6 -8 10 -10 10 -2
0 -7 -4 -10 -10z"/>
<path d="M6447 4583 c-4 -3 -7 -15 -7 -26 0 -16 3 -17 15 -7 8 7 15 19 15 26
0 15 -12 19 -23 7z"/>
<path d="M4574 4565 c-15 -11 -16 -15 -4 -15 15 -2 34 -5 59 -11 7 -2 16 2 18
9 3 7 1 12 -4 10 -4 -1 -18 3 -29 9 -17 10 -25 9 -40 -2z"/>
<path d="M4270 4560 c34 -11 60 -11 35 0 -11 5 -29 8 -40 8 -16 0 -15 -2 5 -8z"/>
<path d="M4893 4553 c9 -2 23 -2 30 0 6 3 -1 5 -18 5 -16 0 -22 -2 -12 -5z"/>
<path d="M5742 4553 c-24 -9 0 -23 36 -22 37 1 96 15 77 19 -26 5 -101 7 -113
3z"/>
<path d="M5386 4541 c-8 -12 10 -41 25 -41 13 0 11 13 -4 35 -10 13 -16 15
-21 6z"/>
<path d="M5627 4543 c-16 -3 -26 -10 -24 -16 4 -15 41 -21 74 -12 20 5 23 8
13 20 -7 8 -18 14 -24 14 -6 -1 -24 -4 -39 -6z"/>
<path d="M4835 4519 c-4 -6 -4 -13 -1 -16 3 -4 6 0 6 8 0 9 3 10 8 3 4 -7 39
-13 78 -16 57 -3 71 -1 67 10 -4 9 -23 13 -64 11 -32 -1 -62 1 -66 4 -9 10
-21 9 -28 -4z"/>
<path d="M5465 4518 c3 -8 25 -13 54 -14 38 -1 48 2 44 12 -3 9 -22 14 -54 14
-35 0 -47 -4 -44 -12z"/>
<path d="M5092 4512 c-105 -5 -59 -22 59 -22 90 0 109 3 109 15 0 8 -5 15 -11
15 -5 0 -8 -4 -5 -8 3 -5 -16 -6 -42 -3 -26 3 -75 5 -110 3z"/>
<path d="M5783 4493 c9 -2 23 -2 30 0 6 3 -1 5 -18 5 -16 0 -22 -2 -12 -5z"/>
<path d="M3803 3140 c-63 -38 -63 -40 -63 -450 l0 -370 80 0 80 0 0 306 c0
255 2 305 14 302 7 -2 105 -104 217 -228 269 -298 347 -377 383 -386 44 -11
106 15 133 55 23 34 23 35 23 407 l0 374 -80 0 -80 0 0 -300 c0 -165 -4 -300
-8 -300 -5 0 -110 111 -234 248 -287 314 -312 339 -357 352 -52 14 -72 12
-108 -10z"/>
<path d="M1725 3141 c-111 -27 -165 -103 -165 -231 0 -109 32 -169 115 -213
37 -21 58 -22 318 -27 l279 -5 24 -28 c25 -30 31 -75 14 -108 -25 -46 -48 -49
-400 -49 l-330 0 0 -80 0 -80 330 0 c199 0 349 4 380 11 69 15 139 64 170 119
20 37 25 59 25 125 0 103 -29 166 -96 207 -65 40 -126 48 -381 48 -130 0 -237
4 -248 10 -25 13 -41 65 -30 94 20 55 28 56 367 56 l313 0 0 80 0 80 -327 -1
c-181 -1 -341 -4 -358 -8z"/>
<path d="M2895 3136 c-110 -35 -187 -103 -226 -202 -20 -52 -23 -76 -23 -194
0 -117 3 -143 22 -190 39 -97 82 -144 168 -187 l78 -38 320 0 321 0 3 77 3 77
-310 3 -309 3 -43 30 c-64 45 -83 91 -87 206 -5 118 8 169 53 212 55 53 82 57
399 57 l286 0 0 80 0 80 -307 -1 c-220 0 -320 -4 -348 -13z"/>
<path d="M5163 3133 c15 -2 39 -2 55 0 15 2 2 4 -28 4 -30 0 -43 -2 -27 -4z"/>
<path d="M6994 3133 c7 -7 87 -5 95 3 2 2 -20 4 -49 4 -29 0 -50 -3 -46 -7z"/>
<path d="M7278 3133 c39 -2 105 -2 145 0 39 1 7 3 -73 3 -80 0 -112 -2 -72 -3z"/>
<path d="M8088 3133 c17 -2 47 -2 65 0 17 2 3 4 -33 4 -36 0 -50 -2 -32 -4z"/>
<path d="M8488 3133 c7 -3 16 -2 19 1 4 3 -2 6 -13 5 -11 0 -14 -3 -6 -6z"/>
<path d="M8563 3133 c9 -2 23 -2 30 0 6 3 -1 5 -18 5 -16 0 -22 -2 -12 -5z"/>
<path d="M7001 2950 c0 -37 2 -41 9 -22 6 13 6 31 0 45 -7 18 -9 14 -9 -23z"/>
<path d="M4856 2829 c-9 -45 -7 -149 2 -149 4 0 9 41 11 90 2 93 -2 113 -13
59z"/>
<path d="M6695 2744 c0 -83 2 -92 12 -67 16 36 16 112 0 140 -10 18 -12 7 -12
-73z"/>
<path d="M4862 2640 c0 -14 2 -19 5 -12 2 6 2 18 0 25 -3 6 -5 1 -5 -13z"/>
<path d="M3512 1867 c-44 -14 -118 -80 -145 -131 -18 -34 -22 -57 -22 -141 0
-117 17 -159 87 -219 114 -98 324 -82 417 31 116 141 67 379 -94 454 -45 21
-186 25 -243 6z m213 -66 c78 -36 117 -106 117 -208 1 -135 -87 -223 -223
-223 -48 0 -117 25 -148 53 -80 73 -84 253 -8 336 55 59 181 80 262 42z"/>
<path d="M5728 1867 c-60 -23 -115 -73 -145 -135 -23 -48 -28 -70 -28 -137 0
-125 52 -212 155 -259 67 -30 198 -29 262 2 54 27 113 88 135 141 20 46 22
162 4 223 -17 58 -69 122 -125 150 -52 27 -201 36 -258 15z m240 -80 c77 -50
110 -165 81 -272 -15 -52 -82 -119 -134 -134 -160 -44 -294 52 -295 210 0 100
41 176 114 210 61 29 180 22 234 -14z"/>
<path d="M4285 1595 l0 -275 32 0 32 0 3 98 3 97 81 3 80 3 73 -101 c71 -98
73 -100 113 -100 l40 0 -24 33 c-13 17 -48 63 -76 101 l-52 70 46 25 c71 39
89 69 89 149 0 55 -4 73 -24 101 -42 59 -85 71 -261 71 l-155 0 0 -275z m326
199 c35 -17 62 -76 54 -114 -17 -76 -77 -103 -220 -98 l-90 3 -3 104 c-1 58 0
111 3 118 4 11 26 13 117 7 62 -4 125 -13 139 -20z"/>
<path d="M5130 1596 l0 -276 36 0 36 0 -5 273 -5 272 -31 3 -31 3 0 -275z"/>
<path d="M6480 1595 l0 -275 35 0 35 0 2 225 3 226 94 -128 c52 -71 126 -172
165 -225 68 -93 73 -97 109 -98 l37 0 0 275 0 275 -35 0 -35 0 -2 -217 -3
-216 -141 189 c-78 104 -149 201 -159 217 -14 23 -24 27 -61 27 l-44 0 0 -275z"/>
</g>
</svg>
